<?xml version="1.0" encoding="UTF-8" standalone="no"?>
<svg
   class="svg-icon"
   style="width: 1em; height: 1em;vertical-align: middle;fill: currentColor;overflow: hidden;"
   viewBox="0 0 1024 1024"
   version="1.1"
   id="svg6"
   sodipodi:docname="logo_iot_dark.svg"
   inkscape:export-filename="logo_iot.svg"
   inkscape:export-xdpi="54.799999"
   inkscape:export-ydpi="54.799999"
   inkscape:version="1.2.2 (b0a8486541, 2022-12-01)"
   xmlns:inkscape="http://www.inkscape.org/namespaces/inkscape"
   xmlns:sodipodi="http://sodipodi.sourceforge.net/DTD/sodipodi-0.dtd"
   xmlns="http://www.w3.org/2000/svg"
   xmlns:svg="http://www.w3.org/2000/svg">
  <defs
     id="defs10" />
  <sodipodi:namedview
     id="namedview8"
     pagecolor="#ffffff"
     bordercolor="#666666"
     borderopacity="1.0"
     inkscape:showpageshadow="2"
     inkscape:pageopacity="0.0"
     inkscape:pagecheckerboard="0"
     inkscape:deskcolor="#d1d1d1"
     showgrid="false"
     inkscape:zoom="0.76367188"
     inkscape:cx="475.98977"
     inkscape:cy="512"
     inkscape:window-width="1920"
     inkscape:window-height="1011"
     inkscape:window-x="0"
     inkscape:window-y="0"
     inkscape:window-maximized="1"
     inkscape:current-layer="svg6" />
  <path
     id="path2"
     style="display:inline;fill:#ffffff;image-rendering:auto"
     d="m 512,67.300781 c -71.49993,0 -138.90044,27.59966 -189.90039,77.599609 C 276.09966,190.00035 248.09999,248.70006 242,312 141.8001,322.59999 63.400391,407.69932 63.400391,510.69922 63.400391,620.89911 153.09933,710.5 263.19922,710.5 c 13.79998,0 25,-11.20001 25,-25 0,-13.79999 -11.20002,-25 -25,-25 -82.59992,0 -149.79883,-67.20086 -149.79883,-149.80078 0,-82.59992 67.19891,-149.79883 149.79883,-149.79883 h 0.10156 c 14.89999,0 27.2,-12.0004 27.5,-26.90039 1.2,-58.09994 24.79887,-112.60082 66.29883,-153.30078 C 398.69957,139.89926 453.70006,117.40039 512,117.40039 h 0.40039 c 58.29994,0 113.30043,22.49887 154.90039,63.29883 41.49996,40.69996 65.09883,95.20084 66.29883,153.30078 0.3,14.89999 12.60001,26.90039 27.5,26.90039 h 0.0996 C 843.79914,360.90039 911,428.0993 911,510.69922 911,593.29914 843.79914,660.5 761.19922,660.5 c -13.79999,0 -25,11.20001 -25,25 0,13.79999 11.20001,25 25,25 C 871.39911,710.5 961,620.89911 961,510.69922 961,407.69932 882.70029,322.59999 782.40039,312 776.2004,248.70006 748.30074,190.00035 702.30078,144.90039 651.30083,94.900441 583.80032,67.300781 512.40039,67.300781 Z M 517.09961,226 c -48.99995,0 -88.90039,39.90044 -88.90039,88.90039 0,40.39996 27.00043,74.5004 63.90039,85.40039 v 371.09961 c -21.29998,9.19999 -36.19922,30.39963 -36.19922,55.09961 0,33.09997 26.90003,60 60,60 33.09997,0 60,-26.90003 60,-60 0,-23.69998 -13.8008,-44.30001 -33.80078,-54 V 400.30078 C 578.99957,389.50079 606,355.30035 606,314.90039 606,265.90044 566.09956,226 517.09961,226 Z m 0,50.09961 C 538.49959,276.09961 556,293.60002 556,315 c 0,21.39998 -17.50041,38.90039 -38.90039,38.90039 -21.49998,0 -38.90039,-17.50041 -38.90039,-38.90039 0,-21.39998 17.50041,-38.90039 38.90039,-38.90039 z M 351.5,382.69922 c -33.09997,0 -60,26.90003 -60,60 0,25.89997 16.40002,48.0004 39.5,56.40039 v 308 C 331,825.99959 315.59959,841.5 296.59961,841.5 H 259 c -10.79999,-36.89996 -45.00043,-63.90039 -85.40039,-63.90039 -48.99995,0 -88.900391,39.90044 -88.900391,88.90039 0,48.99995 39.900441,88.90039 88.900391,88.90039 40.39996,0 74.5004,-27.00043 85.40039,-63.90039 h 37.59961 C 343.09956,891.5 381,853.69956 381,807.09961 V 494.90039 c 18.19998,-10.29999 30.5,-29.8008 30.5,-52.30078 0,-33.09997 -26.90003,-59.90039 -60,-59.90039 z m 321.09961,0 c -33.09997,0 -60,26.90003 -60,60 0,23.59998 13.70002,44.1004 33.5,53.90039 v 310.5 c 0,46.49995 37.80044,84.40039 84.40039,84.40039 h 37.59961 c 10.79999,36.89996 45.00043,63.90039 85.40039,63.90039 48.99995,0 88.90039,-39.90044 88.90039,-88.90039 0,-48.99995 -39.80044,-89 -88.90039,-89 -40.39996,0 -74.5004,27.00043 -85.40039,63.90039 H 730.5 c -18.89998,0 -34.40039,-15.40041 -34.40039,-34.40039 V 497.90039 c 21.39998,-9.19999 36.5,-30.4012 36.5,-55.20117 0,-33.09997 -26.90003,-60 -60,-60 z m -499,444.90039 c 21.39998,0 38.90039,17.50041 38.90039,38.90039 0,21.39998 -17.40041,38.90039 -38.90039,38.90039 -21.49998,0 -38.90039,-17.50041 -38.90039,-38.90039 0,-21.39998 17.50041,-38.90039 38.90039,-38.90039 z m 679.90039,0 c 21.39998,0 38.90039,17.50041 38.90039,38.90039 0,21.39998 -17.40041,38.90039 -38.90039,38.90039 -21.49998,0 -38.90039,-17.50041 -38.90039,-38.90039 0,-21.39998 17.50041,-38.90039 38.90039,-38.90039 z"
     inkscape:export-filename="./path2.svg"
     inkscape:export-xdpi="24"
     inkscape:export-ydpi="24" />
</svg>
