<svg xmlns="http://www.w3.org/2000/svg" width="264" height="58" viewBox="0 0 264 58">
  <style>
    .logomark {
      fill: #ee7b00;
    }
  </style>
  <path class="logomark" d="M40.78307,48.12735a5.66988,5.66988,0,0,0-2.69682.755c-1.29316,1.57553,4.06774,1.86813.4788,3.61963a5.153,5.153,0,0,1-2.8953.27827c-1.4057-.309-2.4656-1.19086-2.07683-2.19756a6.50955,6.50955,0,0,1,4.41558-3.11832c6.65611-1.49573,11.24151-.87166,17.9631-1.76787,2.5229-.29464,2.75411.02865,2.74388-1.60418a13.22422,13.22422,0,0,0-2.31419-2.7582c-6.74-5.72307-17.605-7.38453-28.27157-7.89812L28.142,33.53016c4.61,2.22416,8.1191,4.85345,12.18274,7.274a14.55831,14.55831,0,0,0,7.759,1.13357l0.88393,1.09469-0.14118.08594-15.5466.96169H33.12025A40.6162,40.6162,0,0,0,11.41476,30.16016a11.8481,11.8481,0,0,0-5.78036-.09208c-1.67784.888-.46038,3.53369-4.2969,2.86051a2.21082,2.21082,0,0,1-1.14584-.72843,1.70994,1.70994,0,0,1,1.01693-2.42059c3.79969-1.88654,10.12023-.78367,15.36859-0.96373,2.93417-.08389,6.24074-0.534,7.01214-2.35511a2.65819,2.65819,0,0,0-2.11367-1.86813,9.75221,9.75221,0,0,0-4.4033-.00818,4.4715,4.4715,0,0,1-1.48141-.83278,13.41982,13.41982,0,0,1,8.56925-1.06195,18.16563,18.16563,0,0,1,3.96543,1.375,6.88188,6.88188,0,0,0,2.91166-2.53517c0.80413-1.34022-.3458-2.85232-2.263-3.90813a8.88757,8.88757,0,0,0-5.631-1.38115l-1.64919.178-0.85324-.9044a15.24975,15.24975,0,0,1,9.76829-.37444,20.074,20.074,0,0,1,6.05045,3.06308,25.61968,25.61968,0,0,1,5.52049-2.77867,35.99986,35.99986,0,0,1,14.51739-.76935l-0.01228-.09208a22.67389,22.67389,0,0,1-8.43011-4.0575C45.923,9.14626,44.56843,6.9487,41.16569,6.53334a12.86257,12.86257,0,0,0-4.66521.96169,5.42312,5.42312,0,0,1-1.65533-.93713,22.3025,22.3025,0,0,1,13.70712-.89212c6.59063,1.71876,7.12263,5.88471,12.66359,8.40761,0.48494,0.21485.976,0.41128,1.47118,0.61589V0h1.01489V58H62.687l0.002-9.36111c-6.51083,1.85585-13.68257-.534-21.906-0.51154m21.89784-29.135L62.687,16.586V16.56763a20.92734,20.92734,0,0,0-10.75453.80209l-4.09638,2.02773-15.5466,9.14422c-3.08354,1.74536-7.52776,1.87427-11.929,2.06047l0.01023,0.09412c5.07648,0.931,11.93516,1.79447,16.36711.34989l4.85345-2.38376,13.11578-7.69759a18.43968,18.43968,0,0,1,7.97382-1.97248M62.687,28.59077V23.78438l-6.90164,4.00635c-0.10231.01841-.06752,0.08594-0.05729,0.133Zm0,7.87356,0.002-6.70317-8.58562-.86756-1.16221.78367A25.8694,25.8694,0,0,0,62.687,36.46433m0,4.966V37.84139A28.31673,28.31673,0,0,1,51.38,30.51005l-6.62132,3.93883c6.40648,1.38933,12.83955,5.00282,15.41769,8.66951Z"/>
  <g class="wordmark">
    <path d="M75.30765,23.2708V23.11529a0.60077,0.60077,0,0,1,.60975-0.663h0.40309V18.8H72.35712v3.65237h1.22155v0.15551a0.6369,0.6369,0,0,1-.71615.663H69.26335V23.11529a0.60185,0.60185,0,0,1,.60975-0.663h0.40309V14.74451H69.26335V14.587a0.60122,0.60122,0,0,1,.60975-0.6609h3.70557v0.15551a0.6369,0.6369,0,0,1-.71615.663h-0.5054v3.14492H76.3205V14.74451H75.30765V14.587a0.60014,0.60014,0,0,1,.60975-0.6609H79.623v0.15551a0.63623,0.63623,0,0,1-.7141.663H78.40142v7.70782H79.623v0.15551a0.63623,0.63623,0,0,1-.7141.663H75.30766"/>
    <path d="M80.6174,21.69731a1.7132,1.7132,0,0,1,.56064-1.22155l3.09173-.94941V18.69357a1.03575,1.03575,0,0,0-1.03944-1.20723,1.57636,1.57636,0,0,0-.5852.09208l-0.19439.7673a0.93364,0.93364,0,0,1-.974.7673H80.91818V18.8c0-1.36478,1.8047-2.13208,3.30043-2.13208a2.15554,2.15554,0,0,1,1.98885.95964v4.12093c0,0.56064.14323,0.70387,0.64863,0.70387h0.31306v0.15551c0,0.5586-.65068.7673-1.46913,0.7673a1.248,1.248,0,0,1-1.2727-.92281h-0.0532l-0.5054.36217a2.449,2.449,0,0,1-1.36478.56064,1.61866,1.61866,0,0,1-1.88655-1.67784m2.74388,0.5586H83.6068l0.663-.28441V20.1402l-0.96169.28441a1.06147,1.06147,0,0,0-.76526,1.01284A0.70759,0.70759,0,0,0,83.36127,22.25591Z"/>
    <path d="M92.11264,23.2708V23.11529a0.64863,0.64863,0,0,1,.634-0.663q0.01448-.00032.029,0H92.9311V19.40972c0-.91053-0.20666-1.41593-1.1172-1.41593a1.80879,1.80879,0,0,0-1.17039.41537v4.04318h0.92281v0.15551a0.63623,0.63623,0,0,1-.7141.663H87.90167V23.11529a0.64863,0.64863,0,0,1,.634-0.663q0.01448-.00032.029,0h0.15551V18.39688a1.224,1.224,0,0,1-.663-0.96169V17.17533l1.78014-.50744H90.6435v1.1704h0.0532a2.71862,2.71862,0,0,1,2.07888-1.066,1.871,1.871,0,0,1,2.07888,2.07888v3.60121h1.02716v0.15551a0.63623,0.63623,0,0,1-.7141.663H92.11264"/>
    <path d="M101.69882,23.4795l-0.7673-.20871h-4.524V23.06209a1.94754,1.94754,0,0,1,.45629-1.20723L99.931,17.68278H97.73339L97.36917,19.113H97.17479a0.62238,0.62238,0,0,1-.663-0.665,5.44911,5.44911,0,0,1,.15551-0.8205l0.19643-.95964h0.311l0.6118,0.20666h4.36647V17.071a2.208,2.208,0,0,1-.5054,1.1704l-2.99147,4.211h2.27531l0.45424-.755a0.88985,0.88985,0,0,1,.7673-0.5586h0.24758l-0.45424,2.34079h-0.24757"/>
    <path d="M103.14544,20.12383a3.22559,3.22559,0,0,1,3.40479-3.45594,2.12362,2.12362,0,0,1,2.58837,1.88654,3.205,3.205,0,0,1-.20871,1.1663l-3.80787.19643v0.10435a1.79554,1.79554,0,0,0,1.729,2.07888,1.96277,1.96277,0,0,0,1.67579-.7141h0.10435a0.9269,0.9269,0,0,1,.15551.5586c0,0.7673-.87165,1.43026-2.4431,1.43026a2.95319,2.95319,0,0,1-3.19812-3.25132m4.15981-1.1172a1.6107,1.6107,0,0,0,.10231-0.5586,0.87451,0.87451,0,0,0-.90849-1.01284,1.61627,1.61627,0,0,0-1.37706,1.76787v0.04911Z"/>
    <path d="M70.17388,33.657V28.27566H69.159V28.11811a0.60957,0.60957,0,0,1,.55383-0.66061q0.02789-.00245.05592-0.00234h3.70557v0.15551a0.63095,0.63095,0,0,1-.7141.665H72.25276V33.344a2.19934,2.19934,0,1,0,4.36647.20871v-5.277H75.412V28.11811a0.59952,0.59952,0,0,1,.59747-0.663H78.96v0.15551a0.6367,0.6367,0,0,1-.7141.665H77.84078v5.277A3.32679,3.32679,0,0,1,74.0329,36.9063c-2.45742,0-3.859-1.066-3.859-3.24928"/>
    <path d="M84.00991,36.80195V36.64439a0.64812,0.64812,0,0,1,.635-0.66095q0.014-.00028.02793,0h0.15551V32.94292c0-.91053-0.20666-1.418-1.1172-1.418a1.79775,1.79775,0,0,0-1.17039.41537v4.04318h0.92281V36.139a0.63525,0.63525,0,0,1-.7141.66295H79.79894V36.64439a0.64812,0.64812,0,0,1,.635-0.66095q0.014-.00028.02793,0H80.6174V31.928a1.21629,1.21629,0,0,1-.663-0.96169V30.70444l1.78014-.5054h0.80618v1.17039H82.594a2.71451,2.71451,0,0,1,2.07888-1.06809,1.873,1.873,0,0,1,2.07888,2.083v3.59917h1.02716V36.139a0.63525,0.63525,0,0,1-.7141.66295H84.00991"/>
    <path d="M88.30476,36.80195V36.64439a0.60783,0.60783,0,0,1,.55241-0.6586q0.0286-.00251.05734-0.00231h0.2087V31.928a1.22079,1.22079,0,0,1-.663-0.96169V30.70444l1.78014-.5054h0.96169a11.0329,11.0329,0,0,0-.15551,2.02773v3.75672h1.01488V36.139a0.6255,0.6255,0,0,1-.70182.66295H88.30476m0.81846-8.89049a1.09088,1.09088,0,0,1,2.13208,0A1.08771,1.08771,0,0,1,89.12322,27.91145Z"/>
    <path d="M94.832,36.9063a8.012,8.012,0,0,0-.55859-1.83334l-1.57144-3.86107h-0.6118V31.06865a0.62348,0.62348,0,0,1,.7141-0.6609h2.95259v0.15551a0.6384,0.6384,0,0,1-.62752.64909q-0.01874.00032-.03748-0.00047h-0.311v0.1064l1.43026,3.80787,1.46913-3.80787v-0.1064H96.874V31.06865a0.61309,0.61309,0,0,1,.70182-0.6609h1.98885v0.15551a0.59681,0.59681,0,0,1-.6118.64863H98.83626l-2.37762,5.59006L94.832,36.9063"/>
    <path d="M99.89412,33.657a3.22776,3.22776,0,0,1,3.40683-3.458,2.12261,2.12261,0,0,1,2.58633,1.8845,3.22749,3.22749,0,0,1-.20871,1.1704l-3.80787.19438v0.10435a1.79634,1.79634,0,0,0,1.729,2.08093,1.96132,1.96132,0,0,0,1.67579-.71615h0.10435a0.91547,0.91547,0,0,1,.15551.56064c0,0.76526-.86961,1.42821-2.4431,1.42821A2.9526,2.9526,0,0,1,99.89412,33.657m4.15981-1.11924a1.5869,1.5869,0,0,0,.10435-0.5586,0.876,0.876,0,0,0-.91053-1.01284,1.61627,1.61627,0,0,0-1.37706,1.76787v0.05115Z"/>
    <path d="M106.93081,36.80195V36.64439a0.60823,0.60823,0,0,1,.55326-0.65864q0.0292-.00254.05854-0.00226h0.20871V31.928a1.21847,1.21847,0,0,1-.665-0.96169V30.70444l1.78219-.5054h0.80618v1.22155h0.05116l0.40309-.45424a1.38866,1.38866,0,0,1,1.1172-.665,0.86016,0.86016,0,0,1,.92242.793q0.00249,0.03312.00244,0.06636a1.44517,1.44517,0,0,1-.41741,1.02716h-0.09a1.28379,1.28379,0,0,0-1.02716-.41741,1.78813,1.78813,0,0,0-.96169.32534v3.88767h1.46913V36.139a0.6255,0.6255,0,0,1-.70182.66295h-3.51118"/>
    <path d="M112.60068,36.2945V36.03464a1.0836,1.0836,0,0,1,1.04935-1.1168l0.0167-.00039h0.20871l0.45424,1.066a1.36625,1.36625,0,0,0,.7673.20871,0.95785,0.95785,0,0,0,1.1172-.96374,1.22283,1.22283,0,0,0-1.02512-.86961l-0.80618-.29874a1.983,1.983,0,0,1-1.52233-1.92542,2.35307,2.35307,0,0,1,2.70163-1.943l0.04225,0.0073a5.25654,5.25654,0,0,1,2.32647.5054v0.26191a1.11978,1.11978,0,0,1-.80618,1.1172h-0.25987l-0.50745-1.01489a1.16915,1.16915,0,0,0-.60975-0.15551,0.86024,0.86024,0,0,0-.96374.91053,1.0084,1.0084,0,0,0,.87165.81846l0.65068,0.24758a2.17243,2.17243,0,0,1,1.83334,1.98885c0,1.15607-1.01488,2.02773-2.95054,2.02773a5.323,5.323,0,0,1-2.58837-.6118"/>
    <path d="M119.12787,36.80195V36.64439a0.60822,0.60822,0,0,1,.55321-0.65864q0.02922-.00254.05859-0.00226h0.20871V31.928a1.21629,1.21629,0,0,1-.663-0.96169V30.70444l1.78014-.5054h0.96374a10.66087,10.66087,0,0,0-.15755,2.02773v3.75672h1.01488V36.139a0.6255,0.6255,0,0,1-.70182.66295h-3.05694m0.82051-8.89049a1.09088,1.09088,0,0,1,2.13208,0A1.08771,1.08771,0,0,1,119.94838,27.91145Z"/>
    <path d="M124.34554,35.98349V31.36943h-1.01488V31.06865a0.64482,0.64482,0,0,1,.70182-0.6609h0.31306V29.1862l1.36478-.50949h0.55859v1.731h1.8313v0.19438a0.76526,0.76526,0,0,1-.76149.769q-0.02748.00013-.05492-0.0017h-1.01488V34.9686a0.68,0.68,0,0,0,.7673.8205,1.10465,1.10465,0,0,0,.85733-0.311h0.10435a0.61424,0.61424,0,0,1,.15551.41332c0,0.65272-.77958,1.01489-1.9377,1.01489a2.01341,2.01341,0,0,1-1.87018-.92281"/>
    <path d="M128.07771,39.33507V39.08954a0.897,0.897,0,0,1,.96169-1.01284,1.869,1.869,0,0,1,1.17039.6118h0.10435a0.88242,0.88242,0,0,0,.50745-0.56064l0.38877-.93509a10.66183,10.66183,0,0,0-.84505-2.1198l-1.76787-3.86107h-0.62408V31.06865a0.62407,0.62407,0,0,1,.71615-0.6609H131.64v0.15551a0.63666,0.63666,0,0,1-.624.64905q-0.01947.00038-.03894-0.00043H130.664v0.1064l1.52233,3.546,1.377-3.546v-0.1064h-0.80617V31.06865a0.614,0.614,0,0,1,.70183-0.6609h1.98885v0.15551a0.59634,0.59634,0,0,1-.60974.64863h-0.09209l-2.75616,6.40852a2.47151,2.47151,0,0,1-2.53517,2.02773,3.19724,3.19724,0,0,1-1.37706-.31306"/>
    <path d="M139.05527,33.55267a3.195,3.195,0,0,1,3.458-3.35363,3.0341,3.0341,0,0,1,3.39046,3.35363,3.17176,3.17176,0,0,1-3.49481,3.35363,2.96368,2.96368,0,0,1-3.35363-3.35363m4.82277,0c0-1.46913-.35193-2.58633-1.41593-2.58633-0.87166,0-1.37911,1.11719-1.37911,2.58633,0,1.46709.36217,2.58633,1.43025,2.58633C143.37059,36.139,143.878,35.01975,143.878,33.55267Z"/>
    <path d="M146.84494,36.80195V36.64439a0.60822,0.60822,0,0,1,.55322-0.65864q0.02922-.00254.05859-0.00226h0.20666V31.36943h-1.01285V31.06865a0.64377,0.64377,0,0,1,.70183-0.6609h0.311V29.0798a3.33113,3.33113,0,0,1,3.147-2.13,6.0889,6.0889,0,0,1,1.32386.15551l0.54632,0.15551V27.404a0.8246,0.8246,0,0,1-.80617.92281,1.94469,1.94469,0,0,1-.81846-0.25986l-0.7141-.45629h-0.09209a1.98411,1.98411,0,0,0-.6609,1.92542v0.87166h1.83129v0.19438a0.76578,0.76578,0,0,1-.76245.76911q-0.028.00012-.056-0.00181h-1.01285v4.61406h1.32591V36.139a0.63593,0.63593,0,0,1-.71615.66295h-3.35363"/>
    <path d="M160.30447,36.64439a0.60012,0.60012,0,0,1,.60974-0.6609h0.50745V35.89141l-0.57292-1.72695h-3.19607l-0.59747,1.72695v0.09208H158.068V36.139a0.63525,0.63525,0,0,1-.7141.66295h-2.484V36.64439a0.6012,0.6012,0,0,1,.60974-0.6609h0.27419l3.22472-8.424,1.88449-.20666a16.73307,16.73307,0,0,0,.70183,2.54745l2.05228,6.08319h0.84711V36.139a0.63021,0.63021,0,0,1-.71615.66295h-3.44366V36.64439m-2.35307-3.39046H160.55l-1.26042-3.86107Z"/>
    <path d="M164.76917,39.64813V39.49263a0.59952,0.59952,0,0,1,.59747-0.66295h0.311V31.928a1.21861,1.21861,0,0,1-.6609-0.96169V30.70444l1.78015-.5054H167.601v0.91053h0.05319a2.50784,2.50784,0,0,1,1.88449-.80823A2.63229,2.63229,0,0,1,172.1762,33.344a3.3208,3.3208,0,0,1-3.48254,3.56234,3.21891,3.21891,0,0,1-1.09263-.18211v2.10548h1.43025v0.15551a0.63624,0.63624,0,0,1-.7141.66295h-3.548m5.38135-5.99111c0-1.52233-.6118-2.23644-1.70239-2.23644a1.64863,1.64863,0,0,0-.84711.221v3.237c0,0.85734.36626,1.26042,0.87166,1.26042a2.08142,2.08142,0,0,0,1.692-2.40868Q170.15826,33.69354,170.15052,33.657Z"/>
    <path d="M172.9742,39.64813V39.49263a0.59952,0.59952,0,0,1,.59747-0.66295h0.31306V31.928a1.21627,1.21627,0,0,1-.66295-0.96169V30.70444l1.78015-.5054h0.80617v0.91053h0.0532a2.5047,2.5047,0,0,1,1.88449-.80823,2.63338,2.63338,0,0,1,2.63748,3.04262,3.32183,3.32183,0,0,1-3.48254,3.56234,3.21045,3.21045,0,0,1-1.09263-.18211v2.10548h1.43025v0.15551a0.63691,0.63691,0,0,1-.71615.66295h-3.548m5.38135-5.99111c0-1.52233-.60974-2.23644-1.70239-2.23644a1.63733,1.63733,0,0,0-.84506.221v3.237c0,0.85734.36422,1.26042,0.87166,1.26042a2.08163,2.08163,0,0,0,1.68962-2.4107Q178.3631,33.69254,178.35555,33.657Z"/>
    <path d="M181.32656,36.80195V36.64439a0.60671,0.60671,0,0,1,.55-0.6585c0.01984-.00178.03978-0.00258,0.0597-0.0024h0.2087V28.17131l-1.066.20666V28.067a0.87816,0.87816,0,0,1,.85733-0.80618l1.01285-.20871h1.287a9.97918,9.97918,0,0,0-.16779,2.02773v6.90369h1.01489V36.139a0.62548,0.62548,0,0,1-.70183.66295h-3.05487"/>
    <path d="M185.72168,36.80195V36.64439a0.60671,0.60671,0,0,1,.55-0.6585c0.01984-.00178.03978-0.00258,0.0597-0.0024h0.20872V31.928a1.21627,1.21627,0,0,1-.66295-0.96169V30.70444l1.78015-.5054h0.96374a10.66088,10.66088,0,0,0-.15756,2.02773v3.75672h1.01489V36.139a0.62548,0.62548,0,0,1-.70183.66295h-3.0549m0.81846-8.89049a1.09088,1.09088,0,0,1,2.13208,0A1.08771,1.08771,0,0,1,186.54014,27.91145Z"/>
    <path d="M190.22115,33.657a3.22619,3.22619,0,0,1,3.40479-3.458,2.12256,2.12256,0,0,1,2.58633,1.8845,3.27225,3.27225,0,0,1-.20666,1.1704l-3.80992.19438v0.10435a1.79743,1.79743,0,0,0,1.729,2.08093,1.96133,1.96133,0,0,0,1.67579-.71615h0.10639a0.92913,0.92913,0,0,1,.15345.56064c0,0.76526-.86962,1.42821-2.4431,1.42821a2.952,2.952,0,0,1-3.19607-3.24928m4.15981-1.11924a1.59167,1.59167,0,0,0,.10231-0.5586,0.87548,0.87548,0,0,0-.90849-1.01284,1.61914,1.61914,0,0,0-1.37911,1.76787v0.05115Z"/>
    <path d="M201.93736,36.9063V36.0858h-0.05114a2.38744,2.38744,0,0,1-1.83335.8205,2.73832,2.73832,0,0,1-2.69068-3.09377,3.27626,3.27626,0,0,1,3.48254-3.51118,3.22181,3.22181,0,0,1,1.09263.18415V28.17131l-1.377.24554V28.11811a0.88863,0.88863,0,0,1,.86962-0.80413l1.31362-.26191h1.287a9.97918,9.97918,0,0,0-.16779,2.02773v6.90369h1.01285V36.139a0.64454,0.64454,0,0,1-.70183.66295l-2.23644.10435m-2.54744-3.40479a1.8341,1.8341,0,0,0,1.70239,2.28759,1.63733,1.63733,0,0,0,.84506-0.221v-3.368A0.9665,0.9665,0,0,0,201.1542,31.08q-0.04295-.0076-0.08644-0.01131a2.02937,2.02937,0,0,0-1.7,2.31229Q199.377,33.44155,199.38992,33.50151Z"/>
    <path d="M209.05386,36.9063l-0.2087-2.84619H209.105a0.78777,0.78777,0,0,1,.80618.5586l0.34989,1.01489a2.83819,2.83819,0,0,0,1.62668.4522,1.48364,1.48364,0,0,0,1.67579-1.51824,1.60212,1.60212,0,0,0-1.31158-1.57348l-1.32591-.5586a2.68079,2.68079,0,0,1-1.87222-2.53517,2.93929,2.93929,0,0,1,3.27155-2.56433q0.05962,0.00722.11891,0.01688a4.30227,4.30227,0,0,1,1.8354.36421H214.382l0.6118-.26191h0.40309v1.57348a0.82385,0.82385,0,0,1-.7673.976h-0.19439l-0.6118-1.48346a2.43215,2.43215,0,0,0-1.22155-.29669,1.258,1.258,0,0,0-1.46914,1.26043,1.41,1.41,0,0,0,1.17039,1.42821l1.31158,0.56064a2.7645,2.7645,0,0,1,2.04205,2.63748c0,1.83334-1.58576,2.795-3.71785,2.795a5.34927,5.34927,0,0,1-1.87222-.31306h-0.10436l-0.60974.31306h-0.29874"/>
    <path d="M216.65119,33.60382a3.31727,3.31727,0,0,1,3.59917-3.40478,3.63333,3.63333,0,0,1,1.9377.5054v0.26191a1.28278,1.28278,0,0,1-.6118,1.22155h-0.1555l-0.80413-.976a0.60543,0.60543,0,0,0-.50745-0.24554,1.93468,1.93468,0,0,0-1.49054,2.29441l0.00709,0.032a1.88408,1.88408,0,0,0,1.731,2.34079,1.95628,1.95628,0,0,0,1.47936-.71615h0.09207a1.00381,1.00381,0,0,1,.1555.51972,1.95947,1.95947,0,0,1-2.2344,1.46913,2.96991,2.96991,0,0,1-3.19813-3.30248"/>
    <path d="M223.02288,36.80195V36.64439a0.60822,0.60822,0,0,1,.55322-0.65864q0.02922-.00254.05859-0.00226h0.2087V31.928a1.21845,1.21845,0,0,1-.665-0.96169V30.70444l1.7822-.5054h0.96169a10.85453,10.85453,0,0,0-.1555,2.02773v3.75672h1.01285V36.139a0.6239,0.6239,0,0,1-.69979.66295h-3.057m0.82051-8.89049a1.08961,1.08961,0,0,1,2.13,0A1.0865,1.0865,0,0,1,223.84338,27.91145Z"/>
    <path d="M227.52236,33.657a3.22775,3.22775,0,0,1,3.40683-3.458,2.12256,2.12256,0,0,1,2.58633,1.8845,3.22782,3.22782,0,0,1-.2087,1.1704l-3.80787.19438v0.10435a1.79634,1.79634,0,0,0,1.729,2.08093,1.96386,1.96386,0,0,0,1.67579-.71615h0.10436a0.91552,0.91552,0,0,1,.1555.56064c0,0.76526-.87166,1.42821-2.4431,1.42821a2.95256,2.95256,0,0,1-3.19813-3.24928m4.15981-1.11924a1.58689,1.58689,0,0,0,.10436-0.5586,0.876,0.876,0,0,0-.91053-1.01284,1.61625,1.61625,0,0,0-1.377,1.76787v0.05115Z"/>
    <path d="M238.77,36.80195V36.64439a0.64929,0.64929,0,0,1,.63745-0.66094q0.01274-.00023.02549,0h0.1555V32.94292c0-.91053-0.20666-1.418-1.11719-1.418a1.79207,1.79207,0,0,0-1.16835.41537v4.04318h0.92076V36.139a0.63526,0.63526,0,0,1-.7141.66295H234.559V36.64439a0.64811,0.64811,0,0,1,.635-0.66095q0.014-.00028.02793,0h0.1555V31.928a1.22085,1.22085,0,0,1-.66295-0.96169V30.70444l1.78015-.5054h0.80822v1.17039h0.05116a2.71773,2.71773,0,0,1,2.07888-1.06809,1.87222,1.87222,0,0,1,2.07888,2.083v3.59917H242.539V36.139a0.63525,0.63525,0,0,1-.7141.66295H238.77"/>
    <path d="M243.17126,33.60382a3.31625,3.31625,0,0,1,3.59917-3.40478,3.625,3.625,0,0,1,1.93565.5054v0.26191a1.285,1.285,0,0,1-.60974,1.22155h-0.15756l-0.80413-.976a0.60543,0.60543,0,0,0-.50745-0.24554,1.9336,1.9336,0,0,0-1.48865,2.29381l0.00724,0.03265a1.883,1.883,0,0,0,1.729,2.34079,1.95726,1.95726,0,0,0,1.48141-.71615h0.09a1.00128,1.00128,0,0,1,.15756.51972,1.96192,1.96192,0,0,1-2.23644,1.46913,2.96846,2.96846,0,0,1-3.19607-3.30248"/>
    <path d="M249.64731,33.657a3.22618,3.22618,0,0,1,3.40479-3.458,2.12256,2.12256,0,0,1,2.58633,1.8845,3.27225,3.27225,0,0,1-.20666,1.1704l-3.80992.19438v0.10435a1.79745,1.79745,0,0,0,1.729,2.08093,1.96129,1.96129,0,0,0,1.67579-.71615h0.1064a0.92913,0.92913,0,0,1,.15345.56064c0,0.76526-.86962,1.42821-2.4431,1.42821a2.952,2.952,0,0,1-3.19607-3.24928m4.15981-1.11924a1.59167,1.59167,0,0,0,.10231-0.5586,0.87548,0.87548,0,0,0-.90849-1.01284,1.61914,1.61914,0,0,0-1.37911,1.76787v0.05115Z"/>
    <path d="M256.73516,36.2945V36.03464a1.08241,1.08241,0,0,1,1.04694-1.11674l0.01911-.00045h0.20666l0.45629,1.066a1.36625,1.36625,0,0,0,.7673.20871,0.95883,0.95883,0,0,0,1.11719-.96374,1.223,1.223,0,0,0-1.02716-.86961l-0.80617-.29874a1.98116,1.98116,0,0,1-1.52028-1.92542,2.352,2.352,0,0,1,2.69958-1.9433l0.0443,0.00765a5.24712,5.24712,0,0,1,2.32442.5054v0.26191a1.11756,1.11756,0,0,1-.80617,1.1172h-0.25986l-0.5054-1.01489a1.17147,1.17147,0,0,0-.6118-0.15551,0.85875,0.85875,0,0,0-.96169.91053,1.00608,1.00608,0,0,0,.87166.81846l0.64863,0.24758a2.17041,2.17041,0,0,1,1.83335,1.98885c0,1.15607-1.01489,2.02773-2.95054,2.02773a5.31428,5.31428,0,0,1-2.58633-.6118"/>
    <path d="M72.93822,44.66119v-0.088a0.45267,0.45267,0,0,1,.54837-0.46243h2.44514v0.088a0.489,0.489,0,0,1-.59338.46243H75.09281v2.34693a4.22611,4.22611,0,0,1-2.48811.76526A3.48111,3.48111,0,0,1,69.114,43.89593a3.79529,3.79529,0,0,1,3.54347-4.03141q0.14019-.009.28078-0.00767a4.00985,4.00985,0,0,1,1.60418.30283h0.08594l0.46448-.21689h0.16164v1.34636c0,0.50744-.16164.76526-0.37854,0.76526H74.79l-0.46243-1.27066a1.99244,1.99244,0,0,0-1.42207-.37649,2.89462,2.89462,0,0,0-2.75363,3.02905q0.00506,0.10632.01793,0.212c0,2.09935,1.00261,3.57461,2.64975,3.57461a2.1067,2.1067,0,0,0,1.3034-.38672V44.66119H72.93822"/>
    <path d="M76.66015,47.68743V47.60149a0.45561,0.45561,0,0,1,.55041-0.46447h0.1596V43.39871a0.94256,0.94256,0,0,1-.62407-0.67523V42.63755l1.3034-.4215h0.24758v0.96987H78.34l0.55041-.54837a0.90706,0.90706,0,0,1,.71-0.33557,0.57169,0.57169,0,0,1,.59338.54915q0.00085,0.02211,0,.04424a1.08016,1.08016,0,0,1-.20461.667h-0.088a0.51315,0.51315,0,0,0-.54837-0.33352,1.46854,1.46854,0,0,0-1.05581.37649V47.137h1.14175V47.223a0.53249,0.53249,0,0,1-.58694.47179q-0.02384-.00259-0.04737-0.00732H76.66015"/>
    <path d="M80.67469,45.03563a2.618,2.618,0,0,1,2.40828-2.8122q0.07764-.006.15553-0.00739a2.31024,2.31024,0,0,1,2.35716,2.73569,2.56848,2.56848,0,0,1-2.30257,2.80934q-0.10883.01079-.21828,0.01229a2.34054,2.34054,0,0,1-2.40013-2.73774m3.95315-.08389a1.86144,1.86144,0,0,0-1.38133-2.24095q-0.085-.02018-0.1717-0.03232a1.97338,1.97338,0,0,0-1.43026,2.35716,1.88705,1.88705,0,0,0,1.43835,2.24791q0.07719,0.017.15559,0.0274A1.95442,1.95442,0,0,0,84.62784,44.95174Z"/>
    <path d="M89.825,47.68743V47.60149a0.44606,0.44606,0,0,1,.53814-0.46447h0.131V44.23968c0-.92486-0.33557-1.26861-1.04558-1.26861a1.90955,1.90955,0,0,0-1.27065.5586V47.137h0.841V47.223a0.5243,0.5243,0,0,1-.62612.46447H86.541V47.60149a0.454,0.454,0,0,1,.54837-0.46447H87.251V43.39871a0.9387,0.9387,0,0,1-.62407-0.67523V42.63755l1.3034-.4215H88.1779V43.1409h0.043A2.24984,2.24984,0,0,1,89.825,42.302,1.40609,1.40609,0,0,1,91.419,43.89593V47.137h0.88393V47.223a0.52225,0.52225,0,0,1-.62407.46447H89.825"/>
    <path d="M92.91268,47.68743V47.60149A0.454,0.454,0,0,1,93.461,47.137h0.16164V43.39871a0.92634,0.92634,0,0,1-.62407-0.67523V42.63755l1.3034-.4215H94.6785a9.021,9.021,0,0,0-.12891,1.67988V47.137h0.841V47.223a0.52316,0.52316,0,0,1-.62612.46447H92.91268m0.59338-7.40909a0.5763,0.5763,0,0,1,.56946-0.58305q0.02734-.00032.05461,0.00195a0.58624,0.58624,0,1,1,.0098,1.17244h-0.0098a0.60422,0.60422,0,0,1-.62387-0.58392Z"/>
    <path d="M99.28642,47.68743V47.60149a0.44606,0.44606,0,0,1,.53814-0.46447h0.12891V44.23968c0-.92486-0.33352-1.26861-1.04353-1.26861a1.90957,1.90957,0,0,0-1.27065.5586V47.137H98.4782V47.223a0.52224,0.52224,0,0,1-.62407.46447H96.00236V47.60149a0.454,0.454,0,0,1,.54837-0.46447h0.16164V43.39871a0.9387,0.9387,0,0,1-.62407-0.67523V42.63755l1.3034-.4215h0.24758V43.1409h0.043a2.24987,2.24987,0,0,1,1.60418-.83892,1.40691,1.40691,0,0,1,1.59394,1.59394V47.137h0.88393V47.223a0.52319,0.52319,0,0,1-.62612.46447H99.28642"/>
    <path d="M104.1501,45.88887a0.55716,0.55716,0,0,0-.21484.45015c0,0.24963.24758,0.37854,0.755,0.46447l1.12947,0.12891a1.23587,1.23587,0,0,1,1.34259,1.119q0.00251,0.02768.00378,0.05546a2.76843,2.76843,0,0,1-2.98328,1.93974,1.6232,1.6232,0,0,1-1.93268-1.23869l-0.005-.02378a1.57042,1.57042,0,0,1,1.51824-1.31158V47.40711l-0.043-.01023a0.78832,0.78832,0,0,1-.59338-0.72229,0.95146,0.95146,0,0,1,.72229-0.798V45.81316a1.68232,1.68232,0,0,1-1.26043-1.70239,1.89993,1.89993,0,0,1,1.90373-1.89611q0.03439,0.00007.06875,0.00138a2.22636,2.22636,0,0,1,1.30135.4215h0.17392a0.72187,0.72187,0,0,1,.59134-0.24963h0.91462v0.08594a0.49183,0.49183,0,0,1-.58111.53814h-0.71a1.73036,1.73036,0,0,1,.33352,1.01284,1.84767,1.84767,0,0,1-2.02363,1.89678,2.533,2.533,0,0,1-.41128-0.03274m0.32329,3.56438c1.14175,0,1.81083-.29055,1.81083-1.01284,0-.5054-0.2926-0.62407-0.9269-0.71l-1.35659-.14937a1.16727,1.16727,0,0,0-.83073.94532C103.17,49.1627,103.59151,49.45326,104.47339,49.45325Zm1.14175-5.42842a1.09686,1.09686,0,0,0-1.05376-1.34636c-0.66909,0-1.01284.4215-1.01284,1.34636A1.08892,1.08892,0,1,0,105.61514,44.02483Z"/>
    <path d="M107.99276,45.16658a2.6534,2.6534,0,0,1,2.33417-2.93815q0.07065-.00809.14166-0.01239a1.59366,1.59366,0,0,1,1.79884,1.35782q0.00817,0.05848.012,0.11745a2.94976,2.94976,0,0,1-.12072.96987l-3.239.16165v0.17187a1.81385,1.81385,0,0,0,1.50166,2.07968q0.08755,0.01413.17618,0.01966a1.59446,1.59446,0,0,0,1.3034-.57906h0.088a0.4026,0.4026,0,0,1,.08594.24554,1.49,1.49,0,0,1-1.72285,1.01284,2.32992,2.32992,0,0,1-2.3592-2.60679m3.32907-1.01284a1.08446,1.08446,0,0,0,.0757-0.46243,0.92537,0.92537,0,0,0-1.00466-1.01284,1.73443,1.73443,0,0,0-1.47323,1.71262Z"/>
    <path d="M116.55383,47.68743V47.60149A0.44606,0.44606,0,0,1,117.092,47.137h0.12891V44.23968c0-.92486-0.33352-1.26861-1.04558-1.26861a1.91363,1.91363,0,0,0-1.27065.5586V47.137h0.841V47.223a0.52225,0.52225,0,0,1-.62407.46447h-1.8538V47.60149a0.45561,0.45561,0,0,1,.55041-0.46447h0.16164V43.39871a0.93485,0.93485,0,0,1-.62407-0.67523V42.63755l1.3034-.4215h0.24554V43.1409h0.043a2.25023,2.25023,0,0,1,1.60622-.83892,1.40546,1.40546,0,0,1,1.5919,1.59394V47.137h0.88189V47.223a0.52225,0.52225,0,0,1-.62407.46447h-1.84971"/>
  </g>
</svg>
